<svg width="50" height="50" viewBox="0 0 50 50" fill="none" xmlns="http://www.w3.org/2000/svg">
<path d="M25 50C11.1929 50 0 38.807 0 25C0 11.1929 11.1929 0 25 0C38.807 0 50 11.1929 50 25C50 38.807 38.807 50 25 50ZM37.5 28.75C37.5 26.679 35.821 25 33.75 25H16.25C14.1789 25 12.5 26.679 12.5 28.75V30C12.5 34.9285 17.1488 40 25 40C32.8513 40 37.5 34.9285 37.5 30V28.75ZM31.875 15.625C31.875 11.8281 28.797 8.75 25 8.75C21.203 8.75 18.125 11.8281 18.125 15.625C18.125 19.4219 21.203 22.5 25 22.5C28.797 22.5 31.875 19.4219 31.875 15.625Z" fill="white"/>
</svg>
